<?xml version="1.0" encoding="utf-8"?>
<!-- Generator: Adobe Illustrator 27.5.0, SVG Export Plug-In . SVG Version: 6.00 Build 0)  -->
<svg version="1.1" id="OBJECTS" xmlns="http://www.w3.org/2000/svg" xmlns:xlink="http://www.w3.org/1999/xlink" x="0px" y="0px"
	 viewBox="0 0 500 500" style="enable-background:new 0 0 500 500;" xml:space="preserve">
<g>
	<g>
		<polygon style="fill:#E1A3BE;" points="42.715,71.668 56.267,87.851 68.511,73.766 64.992,152.879 95.848,152.879 93.865,48.893 
			60.391,48.893 		"/>
		<polygon style="fill:none;stroke:#EDDF54;stroke-linecap:round;stroke-linejoin:round;stroke-miterlimit:10;" points="
			47.722,70.474 56.46,82.532 72.023,66.978 69.282,149.464 93.334,148.561 91.416,51.425 62.052,51.425 		"/>
		<g>
			<path style="fill:#EDDF54;" d="M75.848,42.3c-3.278,0.955-6.828-1.277-8.435-4.29c-1.607-3.013-1.702-6.585-1.569-9.997
				c0.133-3.412,0.448-6.896-0.455-10.189c5.236,3.785,9.523,8.669,11.99,14.64c0.787,1.904,1.412,3.939,1.254,5.993
				C78.474,40.511,77.826,41.723,75.848,42.3z"/>
			<path style="fill:#D8691D;" d="M74.526,39.777c-2.099-0.984-3.747-2.885-4.425-5.101c-0.677-2.217-0.372-4.715,0.819-6.703
				C74.666,30.893,75.61,35.153,74.526,39.777z"/>
			<path style="fill:none;stroke:#1F192C;stroke-linecap:round;stroke-linejoin:round;stroke-miterlimit:10;" d="M76.22,49.564
				c0.642-4.102-0.237-8.424-2.431-11.949"/>
		</g>
		<g>
			<g>
				<path style="fill:#D8691D;" d="M78.243,92.999c0.928,5.754,1.856,11.509,2.784,17.263c-2.046-2.058-4.092-4.116-6.139-6.173
					c-1.382,2.571-2.764,5.142-4.147,7.713c-0.475-6.143-0.95-12.286-1.425-18.429C72.171,93.27,75.389,93.102,78.243,92.999z"/>
				<path style="fill:#3C6AA9;" d="M92.638,85.152c1.887,4.995,3.775,9.99,5.662,14.985c-2.163-1.135-4.327-2.27-6.49-3.404
					c-0.84,2.77-1.681,5.539-2.521,8.309c-1.585-5.09-3.171-10.18-4.756-15.27C87.408,88.999,90.651,87.369,92.638,85.152z"/>
				<path style="fill:none;stroke:#1F192C;stroke-linecap:round;stroke-linejoin:round;stroke-miterlimit:10;" d="M67.476,93.438
					c9.916,0.646,20.039-3.108,27.136-10.063"/>
			</g>
			<g>
				<path style="fill:none;stroke:#1F192C;stroke-linecap:round;stroke-linejoin:round;stroke-miterlimit:10;" d="M48.122,90.228
					c-2.561,1.302-4.229,4.186-4.082,7.055c0.148,2.869,2.103,5.566,4.784,6.599c1.571,0.605,3.533,0.59,4.749-0.576
					c1.215-1.166,1.026-3.628-0.567-4.174c-0.938-0.322-1.965,0.08-2.825,0.574c-3.378,1.937-5.802,5.457-6.407,9.303
					c-0.605,3.846,0.621,7.941,3.24,10.821c1.399,1.539,3.448,2.794,5.472,2.32c2.025-0.474,3.25-3.438,1.632-4.744
					c-1.109-0.895-2.769-0.528-4.028,0.14c-3.993,2.117-6.32,6.985-5.459,11.423c0.861,4.437,4.838,8.082,9.334,8.553"/>
				<path style="fill:none;stroke:#1F192C;stroke-linecap:round;stroke-linejoin:round;stroke-miterlimit:10;" d="M90.083,41.625
					c2.942-5.165,11.184-5.281,15.376-1.067c4.192,4.214,4.672,11.09,2.665,16.685c-0.62,1.728-1.525,3.471-3.092,4.426
					c-1.567,0.956-3.93,0.787-4.903-0.77c-1.375-2.201,1.391-5.215,3.939-4.723c2.548,0.492,4.133,3.215,4.334,5.802
					c0.201,2.587-0.623,5.127-1.158,7.667c-1.001,4.756-0.992,9.722,0.027,14.473c0.575,2.682,1.717,5.583,4.222,6.7
					c2.506,1.117,6.199-1.211,5.236-3.78c-0.595-1.587-2.646-2.261-4.264-1.756c-1.618,0.505-2.817,1.892-3.624,3.383
					c-2.102,3.883-2.039,8.561-1.501,12.944c0.538,4.383,1.499,8.785,1.004,13.173c-0.495,4.388-2.827,8.912-6.943,10.513"/>
				<path style="fill:#3C6AA9;" d="M55.44,42.177c0,0.78-0.632,1.413-1.412,1.413c-0.78,0-1.413-0.632-1.413-1.413
					c0-0.78,0.632-1.412,1.413-1.412C54.808,40.765,55.44,41.397,55.44,42.177z"/>
				<circle style="fill:#D8691D;" cx="101.11" cy="114.6" r="1.66"/>
				<path style="fill:#EDDF54;" d="M58.907,146.828c0,0.957-0.776,1.733-1.733,1.733s-1.733-0.776-1.733-1.733
					c0-0.957,0.776-1.733,1.733-1.733S58.907,145.871,58.907,146.828z"/>
			</g>
		</g>
	</g>
	<g>
		<path style="fill:#D8691D;" d="M212.319,50.005l3.203,18.861c0,0,43.051-10.676,42.522,4.271
			c-0.529,14.946-45.725,45.551-45.725,45.551l-3.708,28.47h79.152v-25.267h-44.484c0,0,32.426-28.469,36.497-51.245
			S257.158,36.126,212.319,50.005z"/>
		<path style="fill:none;stroke:#E1A3BE;stroke-linecap:round;stroke-linejoin:round;stroke-miterlimit:10;" d="M219.71,64.855
			c-0.836-4.26-1.672-8.52-2.508-12.781c9.917-3.643,21.274-5.434,31.788-4.396c5.395,0.532,10.819,1.725,15.532,4.406
			c4.712,2.681,8.669,6.995,10.059,12.235c1.409,5.308,0.076,11.045-2.492,15.899c-2.568,4.854-6.292,8.982-9.976,13.055
			c-9.478,10.479-18.957,20.958-28.435,31.436l49.789,0.754v19.387h-71.346c1.691-7.943,3.426-16.622,5.117-24.565
			c13.341-8.829,25.158-20.146,35.606-32.261c2.525-2.928,4.995-6.012,6.343-9.636c1.348-3.624,1.418-7.92-0.695-11.158
			c-2.757-4.223-8.3-5.558-13.332-5.891C236.597,60.772,227.709,61.749,219.71,64.855z"/>
		<g>
			<g>
				<path style="fill:none;stroke:#1F192C;stroke-linecap:round;stroke-linejoin:round;stroke-miterlimit:10;" d="M220.973,67.333
					c-1.171-1.434-2.647-2.618-4.301-3.449c-0.467-0.235-0.968-0.446-1.491-0.437c-0.523,0.009-1.073,0.293-1.247,0.786
					c-0.174,0.493,0.195,1.142,0.718,1.123C216.827,65.279,218.859,66.824,220.973,67.333z"/>
				<path style="fill:none;stroke:#1F192C;stroke-linecap:round;stroke-linejoin:round;stroke-miterlimit:10;" d="M220.905,67.349
					c0.611-3.037,3.608-5.407,6.705-5.3c0.003,0.362,0.005,0.723,0.008,1.085C225.36,64.496,223.163,65.985,220.905,67.349z"/>
			</g>
			<g>
				<path style="fill:none;stroke:#1F192C;stroke-linecap:round;stroke-linejoin:round;stroke-miterlimit:10;" d="M285.847,122.21
					c-0.066-1.733-0.48-3.389-1.207-4.826c-0.205-0.406-0.447-0.806-0.821-1.03c-0.374-0.223-0.914-0.226-1.298,0.115
					c-0.385,0.341-0.468,1.054-0.089,1.269C284.008,118.634,284.624,120.843,285.847,122.21z"/>
				<path style="fill:none;stroke:#1F192C;stroke-linecap:round;stroke-linejoin:round;stroke-miterlimit:10;" d="M285.791,122.193
					c2.044-2.304,5.418-2.987,7.549-1.527c-0.19,0.308-0.38,0.615-0.57,0.923C290.451,121.746,288.109,122.036,285.791,122.193z"/>
			</g>
			<g>
				<path style="fill:#EDDF54;" d="M222.585,83.83c-4.078,0.582-8.275,0.95-12.352,1.533c0.734-1.931,1.24-3.829,1.974-5.76
					c-1.511-1.17-2.979-2.44-4.49-3.61c4.238-0.937,8.477-1.874,12.715-2.811C220.518,76.694,221.334,80.547,222.585,83.83z"/>
				<path style="fill:#3C6AA9;" d="M230.629,96.739c-3.326,2.573-7.082,4.711-10.408,7.284c0.124-2.155,0.225-4.26,0.349-6.415
					c-2.503-0.647-4.717-1.218-7.22-1.866c3.909-2.32,7.817-4.641,11.726-6.961C226.792,91.423,228.912,94.098,230.629,96.739z"/>
				<path style="fill:#EDDF54;" d="M244.245,108.761c-2.301,3.746-4.901,7.077-7.203,10.823c-0.63-2.259-1.261-4.98-1.891-7.239
					c-2.217,0.39-4.459,0.544-6.676,0.934c2.217-3.785,4.434-7.569,6.651-11.353C237.695,104.621,240.916,107.091,244.245,108.761z"
					/>
				<path style="fill:#E1A3BE;" d="M260.44,116.648c-0.815,3.029-1.766,6.015-2.581,9.044c-1.226-1.823-2.733-3.834-3.959-5.657
					c-1.911,1.241-4.126,2.319-6.038,3.56c0.749-3.846,1.499-7.692,2.248-11.538C253.337,113.457,257.212,115.246,260.44,116.648z"
					/>
				<path style="fill:#3C6AA9;" d="M280.248,121.329c-0.174,3.845-0.32,7.637-0.494,11.482c-1.569-1.818-3.365-3.874-4.933-5.691
					c-1.973,1.524-3.915,2.643-5.888,4.167c-0.161-4.253-0.322-8.506-0.483-12.759C271.951,119.949,276.493,120.899,280.248,121.329
					z"/>
			</g>
			<path style="fill:none;stroke:#1F192C;stroke-linecap:round;stroke-linejoin:round;stroke-miterlimit:10;" d="M220.617,67.225
				c-0.978,10.483,3.012,21.079,9.669,29.236c6.657,8.156,15.802,14.022,25.541,18.021c9.739,3.999,20.107,6.229,30.476,8.049"/>
		</g>
		<path style="fill:none;stroke:#1F192C;stroke-linecap:round;stroke-linejoin:round;stroke-miterlimit:10;" d="M283.483,56.58
			c4.722,3.091,6.706,9.757,4.443,14.927c-0.551,1.258-1.483,2.533-2.843,2.731c-1.359,0.198-2.804-1.447-1.982-2.548
			c2.517-1.126,5.56,1.098,6.147,3.793c0.587,2.695-0.614,5.465-2.162,7.748c-0.735,1.084-1.679,2.188-2.973,2.393
			c-1.293,0.205-2.782-1.094-2.255-2.293c0.353-0.804,1.419-1.097,2.254-0.826s1.464,0.96,1.962,1.683
			c2.604,3.782,2.379,9.276-0.525,12.833"/>
		<path style="fill:none;stroke:#1F192C;stroke-linecap:round;stroke-linejoin:round;stroke-miterlimit:10;" d="M208.879,106.424
			c-2.867,1.973-4.584,5.508-4.362,8.981c0.082,1.281,0.45,2.615,1.381,3.499c0.931,0.884,2.531,1.139,3.497,0.292
			c0.965-0.847,0.671-2.791-0.585-3.056c-1.008-0.213-1.965,0.683-2.257,1.671c-0.292,0.987-0.121,2.043-0.07,3.071
			c0.268,5.404-3.258,10.786-8.32,12.698c-1.197,0.452-3.062,0.323-3.141-0.954c-0.051-0.825,0.866-1.453,1.69-1.39
			c0.825,0.062,1.53,0.602,2.134,1.167c2.542,2.377,4.244,5.636,4.742,9.081c0.222,1.537,0.217,3.127,0.746,4.587
			c0.529,1.46,1.786,2.813,3.339,2.828"/>
		<g>
			<g>
				<path style="fill:#EDDF54;" d="M246.826,41.27c-2.39-0.271-4.184-2.639-4.317-5.041c-0.133-2.402,1.108-4.715,2.81-6.414
					c1.702-1.699,3.839-2.883,5.945-4.044c2.593-1.43,5.186-2.859,7.778-4.289c-0.512,6.673-2.806,13.209-7.262,18.202
					c-0.596,0.668-1.243,1.325-2.063,1.685C248.898,41.728,247.512,41.845,246.826,41.27z"/>
				<path style="fill:#D8691D;" d="M245.826,36.869c0.362-4.46,4.089-8.42,8.518-9.053
					C253.177,32.308,250.219,35.373,245.826,36.869z"/>
			</g>
			<path style="fill:none;stroke:#1F192C;stroke-linecap:round;stroke-linejoin:round;stroke-miterlimit:10;" d="M244.686,46.184
				c-0.128-5.313,1.838-10.648,5.382-14.608"/>
		</g>
		<path style="fill:#E1A3BE;" d="M208.611,67.245c0,1.025-0.831,1.856-1.856,1.856c-1.025,0-1.856-0.831-1.856-1.856
			c0-1.025,0.831-1.856,1.856-1.856C207.78,65.39,208.611,66.22,208.611,67.245z"/>
		<circle style="fill:#EDDF54;" cx="272.129" cy="104.62" r="2.22"/>
		<path style="fill:#3C6AA9;" d="M269.909,32.974c0,0.772-0.626,1.398-1.398,1.398c-0.772,0-1.398-0.626-1.398-1.398
			c0-0.772,0.626-1.398,1.398-1.398C269.283,31.576,269.909,32.201,269.909,32.974z"/>
	</g>
	<g>
		<path style="fill:#EDDF54;" d="M384.569,49.787l4.168,17.234c0,0,21.599-8.033,28.42,0s-4.547,20.7-20.841,22.244v15.756
			c0,0,23.873-1.854,26.904,6.179c3.031,8.033-14.804,20.082-37.338,12.976l-6.619,20.7c0,0,55.703,11.122,68.587-15.757
			c12.884-26.879-19.326-34.571-19.326-34.571s33.346-20.113,13.642-37.723C422.462,39.216,384.569,49.787,384.569,49.787z"/>
		<path style="fill:none;stroke:#D8691D;stroke-miterlimit:10;" d="M401.363,92.144c-0.036,3.029-0.461,6.231-0.497,9.26
			c7.04-0.308,14.154,1.263,20.409,4.508c2.206,1.145,4.412,2.607,5.496,4.843c1.156,2.384,0.805,5.301-0.422,7.649
			c-1.227,2.348-3.234,4.197-5.375,5.757c-8.071,5.876-19.392,8.308-29.152,6.208c-1.114,3.642-1.264,7.06-2.378,10.702
			c8.91,2.013,18.022,4.039,27.1,3.021c9.078-1.018,18.275-5.662,22.312-13.856c3.227-6.551,2.658-14.674-0.924-21.038
			c-3.582-6.364-9.402-12.264-16.416-14.296c6.392-4.029,12.983-8.251,17.12-14.573c4.138-6.322,5.115-15.38,0.207-21.125
			c-3.109-3.639-7.915-5.312-12.574-6.406c-12.047-2.83-25.567-3.106-37.605-0.235c1.062,3.167,2.125,6.334,3.187,9.5
			c5.522-1.694,11.959-3.073,17.702-2.455c5.743,0.618,11.579,4.189,13.004,9.787c1.309,5.144-1.445,10.635-5.491,14.071
			C413.021,86.901,406.381,90.413,401.363,92.144z"/>
		<path style="fill:none;stroke:#1F192C;stroke-linecap:round;stroke-linejoin:round;stroke-miterlimit:10;" d="M382.58,59.91
			c-2.002,1.798-3.062,4.591-2.757,7.264c0.305,2.673,1.967,5.156,4.322,6.457c1.383,0.764,3.243,1.075,4.456,0.063
			c1.214-1.012,0.704-3.558-0.876-3.505c-1.071,0.036-1.8,1.208-1.806,2.28c-0.007,1.072,0.485,2.073,0.855,3.079
			c1.185,3.22,1.147,6.873-0.104,10.067c-0.559,1.428-1.439,2.845-2.84,3.469c-1.401,0.624-3.375,0.089-3.834-1.374
			c-0.518-1.65,1.319-3.35,3.036-3.139c1.717,0.21,3.014,1.768,3.499,3.429c0.485,1.66,0.333,3.429,0.25,5.157
			c-0.083,1.728-0.079,3.532,0.675,5.088c0.755,1.557,2.474,2.776,4.164,2.411"/>
		<path style="fill:none;stroke:#1F192C;stroke-linecap:round;stroke-linejoin:round;stroke-miterlimit:10;" d="M457.78,89.392
			c-2.172,2.449-3.891,5.606-3.517,8.858c0.374,3.252,3.558,6.258,6.736,5.471c0.951-0.235,1.857-0.822,2.268-1.711
			c0.411-0.889,0.202-2.083-0.611-2.63c-0.755-0.508-1.811-0.347-2.567,0.159c-0.757,0.505-1.274,1.29-1.744,2.069
			c-1.261,2.092-2.346,4.372-2.508,6.81c-0.162,2.437,0.762,5.063,2.806,6.402c1.269,0.831,3.031,1.064,4.284,0.21
			c1.253-0.854,1.578-2.943,0.401-3.899c-0.924-0.751-2.355-0.55-3.314,0.157c-0.958,0.707-1.542,1.801-2.049,2.879
			c-0.903,1.921-1.671,4.113-1.001,6.127c0.669,2.014,3.428,3.354,5.011,1.939"/>
		<g>
			<g>
				<path style="fill:#EDDF54;" d="M415.382,43.157c-1.155-1.279-1.839-2.975-1.892-4.697c-0.107-3.43,2.242-6.56,5.166-8.358
					c2.924-1.798,6.365-2.513,9.728-3.198c0.675,3.87,1.064,7.978-1.037,11.297c-1.195,1.889-3.149,3.206-5.237,4.005
					C420.021,43.006,417.602,42.891,415.382,43.157z"/>
				<path style="fill:#D8691D;" d="M425.577,30.677c-2.667,0.401-5.169,1.812-6.893,3.886c-1.723,2.074-2.652,4.793-2.557,7.488
					C421.068,40.064,424.062,35.782,425.577,30.677z"/>
			</g>
			<path style="fill:none;stroke:#1F192C;stroke-linecap:round;stroke-linejoin:round;stroke-miterlimit:10;" d="M413.74,50.188
				c0.407-5.191,2.886-10.191,6.771-13.658"/>
		</g>
		<g>
			<g>
				<path style="fill:#E1A3BE;" d="M406.918,92.835c0.278,4.193,0.555,8.387,0.833,12.58c-1.796-1.751-3.592-3.502-5.388-5.253
					c-1.689,2.18-3.378,4.359-5.068,6.539c-0.049-4.347-0.097-8.694-0.145-13.041C400.267,93.751,403.846,93.372,406.918,92.835z"/>
				<path style="fill:#3C6AA9;" d="M422.333,87.361c1.052,4.548,2.105,9.095,3.157,13.643c-2.222-1.357-4.443-2.715-6.665-4.072
					c-0.796,1.997-1.592,3.994-2.388,5.99c-1.116-3.88-2.232-7.76-3.348-11.64C416.118,90.248,419.577,88.988,422.333,87.361z"/>
				<path style="fill:#E1A3BE;" d="M434.938,76.916c2.106,4.249,4.211,8.498,6.317,12.747c-2.131-0.937-4.262-1.875-6.393-2.812
					c-0.126,2.499-0.251,4.999-0.377,7.498c-2.082-3.702-4.165-7.404-6.247-11.105C430.368,81.219,432.808,78.942,434.938,76.916z"
					/>
				<path style="fill:#E1A3BE;" d="M444.125,64.04c2.57,3.108,5.139,6.216,7.709,9.324c-1.88-0.103-3.76-0.206-5.639-0.309
					c0.118,2.649,0.236,5.298,0.355,7.948c-2.434-3.134-4.868-6.267-7.301-9.401C440.865,69.107,442.508,66.535,444.125,64.04z"/>
			</g>
			<path style="fill:none;stroke:#1F192C;stroke-linecap:round;stroke-linejoin:round;stroke-miterlimit:10;" d="M396.21,93.821
				c10.512,0.074,21.025-3.094,29.747-8.964c8.721-5.87,15.614-14.417,19.503-24.184"/>
		</g>
		<g>
			<g>
				<path style="fill:#3C6AA9;" d="M393.261,132.435c0.429,4.385,0.858,8.77,1.287,13.156c-2.076-1.425-4.152-2.85-6.229-4.274
					c-0.905,2.038-1.809,4.077-2.714,6.115c-1.248-4.65-1.883-9.464-1.883-14.278C386.985,132.954,389.999,132.634,393.261,132.435z
					"/>
				<path style="fill:#E1A3BE;" d="M413.229,128.241c0.728,4.93,1.456,9.86,2.183,14.79c-2.134-1.586-4.267-3.172-6.401-4.758
					c-0.711,2.014-1.422,4.027-2.133,6.041c-1.253-4.468-2.505-8.936-3.758-13.404C406.372,130.058,409.976,129.094,413.229,128.241
					z"/>
				<path style="fill:#E1A3BE;" d="M428.462,119.766c2.2,4.319,4.401,8.638,6.601,12.957c-2.22-0.765-4.439-1.529-6.659-2.294
					c-0.565,1.983-1.131,3.967-1.696,5.951c-2.133-3.982-4.266-7.964-6.399-11.946C422.896,122.78,425.874,121.419,428.462,119.766z
					"/>
				<path style="fill:#3C6AA9;" d="M441.572,107.032c2.501,4.3,5.001,8.599,7.502,12.899c-2.279-0.621-4.559-1.243-6.838-1.864
					c-0.234,2.416-0.468,4.831-0.702,7.247c-2.407-3.51-4.815-7.02-7.222-10.529C436.676,112.1,439.209,109.717,441.572,107.032z"/>
			</g>
			<path style="fill:none;stroke:#1F192C;stroke-linecap:round;stroke-linejoin:round;stroke-miterlimit:10;" d="M383.198,132.959
				c23.683,1.284,47.675-10.315,61.377-29.674"/>
		</g>
		<circle style="fill:#E1A3BE;" cx="381.231" cy="41.916" r="1.967"/>
		<path style="fill:#EDDF54;" d="M447.833,88.99c0,0.899-0.729,1.629-1.629,1.629s-1.629-0.729-1.629-1.629
			c0-0.9,0.729-1.629,1.629-1.629S447.833,88.09,447.833,88.99z"/>
		<circle style="fill:#D8691D;" cx="390.282" cy="116.273" r="3.625"/>
	</g>
	<g>
		<path style="fill:#3C6AA9;" d="M118.463,306.591l-5.168-119.216l-38.666,1.779l-37.49,88.259h47.33l-2.491,29.178H118.463z
			 M74.629,246.983l14.467-36.121l-2.491,36.121H74.629z"/>
		<path style="fill:none;stroke:#1F192C;stroke-linecap:round;stroke-linejoin:round;stroke-miterlimit:10;" d="M107.607,178.403
			c1.369,2.743,3.942,4.858,6.898,5.671c2.956,0.813,6.248,0.311,8.828-1.346c0.874-0.561,1.702-1.298,2.027-2.285
			c0.325-0.986-0.027-2.249-0.979-2.665c-1.106-0.483-2.355,0.344-3.095,1.297c-1.909,2.46-2.123,6.107-0.516,8.774
			c1.607,2.667,4.932,4.181,7.999,3.643c1.334-0.234,2.674-0.888,3.35-2.061c0.676-1.173,0.437-2.908-0.74-3.578
			c-1.249-0.711-2.818-0.002-3.991,0.828c-2.341,1.658-4.353,3.92-5.212,6.658c-0.859,2.738-0.402,5.975,1.579,8.051
			c1.981,2.076,5.554,2.602,7.798,0.814"/>
		<path style="fill:none;stroke:#1F192C;stroke-linecap:round;stroke-linejoin:round;stroke-miterlimit:10;" d="M38.929,250.833
			c-4.412-1.055-8.775,2.92-9.767,7.347c-0.992,4.427,0.464,9.006,2.08,13.245c1.616,4.239,3.444,8.585,3.211,13.116
			c-0.105,2.054-0.777,4.275-2.516,5.372c-1.74,1.097-4.629,0.231-4.819-1.817c-0.21-2.26,2.894-3.547,4.99-2.675
			c2.095,0.872,3.397,2.925,4.864,4.657c5.13,6.052,13.816,8.837,21.508,6.895c2.551-0.644,5.152-1.921,6.367-4.255
			c1.215-2.334,0.301-5.826-2.243-6.5c-2.931-0.778-5.571,2.825-4.887,5.779c0.684,2.954,3.456,4.957,6.26,6.111
			c2.804,1.154,5.854,1.754,8.451,3.318c2.597,1.564,4.724,4.527,4.04,7.481"/>
		<g>
			<path style="fill:#EDDF54;" d="M80.689,180.188c-2.189-2.98-3.278-6.75-3.015-10.438c3.219-0.809,6.75-0.291,9.602,1.408
				c2.851,1.699,4.988,4.557,5.81,7.773c0.354,1.385,0.465,2.884-0.044,4.22C90.631,189.475,82.992,183.323,80.689,180.188z"/>
			<path style="fill:#D8691D;" d="M82.775,173.312c1.776,0.722,10.609,5.539,6.055,7.873c-1.497,0.767-3.114-0.171-4.051-1.287
				c-0.756-0.9-1.283-2.09-1.616-3.208C83.063,176.351,82.767,173.309,82.775,173.312z"/>
		</g>
		<path style="fill:none;stroke:#1F192C;stroke-linecap:round;stroke-linejoin:round;stroke-miterlimit:10;" d="M91.733,192.275
			c0.546-4.826-1.063-9.855-4.309-13.469"/>
		<g>
			<polygon style="fill:none;stroke:#D8691D;stroke-linecap:round;stroke-linejoin:round;stroke-miterlimit:10;" points="
				43.637,273.716 77.801,192.978 110.823,192.978 114.684,302.551 87.425,302.551 87.425,271.968 			"/>
			<polygon style="fill:none;stroke:#D8691D;stroke-linecap:round;stroke-linejoin:round;stroke-miterlimit:10;" points="
				69.056,251.413 90.63,203.289 91.838,251.413 			"/>
		</g>
		<g>
			<g>
				<path style="fill:#EDDF54;" d="M62.799,255.482c-2.472,4.474-4.944,8.947-7.415,13.421c-1.317-2.527-2.633-5.055-3.95-7.582
					c-2.599,1.496-5.197,2.993-7.796,4.489c2.099-4.799,4.197-9.597,6.296-14.396C54.074,253.226,58.296,255.084,62.799,255.482z"/>
				<path style="fill:#E1A3BE;" d="M81.015,257.849c-0.637,4.425-1.273,8.849-1.91,13.274c-1.76-1.767-3.52-3.533-5.28-5.3
					c-1.911,1.684-4.214,3.237-6.125,4.921c0.036-4.718,0.072-9.436,0.108-14.154C72.256,257.772,76.413,257.898,81.015,257.849z"/>
				<path style="fill:#EDDF54;" d="M100.766,255.525c0.283,4.485,0.565,8.97,0.848,13.455c-2.211-1.785-4.422-3.57-6.633-5.355
					c-1.49,2.497-2.98,4.994-4.47,7.491c-0.847-4.506-1.694-9.012-2.541-13.518C92.265,258.107,96.819,257.293,100.766,255.525z"/>
				<path style="fill:#E1A3BE;" d="M115.878,247.434c2.072,4.893,4.143,9.785,6.214,14.678c-2.46-1.143-4.919-2.285-7.379-3.428
					c-0.568,2.145-1.137,4.289-1.705,6.434c-1.911-4.085-3.822-8.17-5.733-12.255C110.002,251.04,113.151,249.256,115.878,247.434z"
					/>
			</g>
			<path style="fill:none;stroke:#1F192C;stroke-linecap:round;stroke-linejoin:round;stroke-miterlimit:10;" d="M47.951,250.36
				c11.85,5.025,24.768,7.513,37.637,7.248c10.955-0.225,22.506-2.762,30.352-10.41"/>
		</g>
		<path style="fill:#EDDF54;" d="M59.445,204.987c0,2.096-1.699,3.796-3.796,3.796c-2.096,0-3.796-1.699-3.796-3.796
			c0-2.096,1.699-3.796,3.796-3.796C57.745,201.192,59.445,202.891,59.445,204.987z"/>
		<path style="fill:#D8691D;" d="M125.895,276.141c0,1.05-0.851,1.901-1.901,1.901c-1.05,0-1.901-0.851-1.901-1.901
			c0-1.05,0.851-1.901,1.901-1.901C125.044,274.24,125.895,275.091,125.895,276.141z"/>
		<path style="fill:#E1A3BE;" d="M79.161,285.147c0,1.97-1.597,3.567-3.567,3.567c-1.97,0-3.567-1.597-3.567-3.567
			c0-1.97,1.597-3.567,3.567-3.567C77.564,281.58,79.161,283.177,79.161,285.147z"/>
	</g>
	<g>
		<path style="fill:#E1A3BE;" d="M289.453,189.866H221.66l-11.388,70.462c0,0,31.316-7.473,39.145,7.473
			c7.829,14.946-38.078,10.007-38.078,10.007l-4.42,21.708c0,0,46.412,7.117,65.273-5.694c18.861-12.811,23.162-45.852-3.884-52.436
			c-22.605-5.503-26.364-3.478-26.364-3.478l3.817-24.555h36.93L289.453,189.866z"/>
		<path style="fill:none;stroke:#EDDF54;stroke-linecap:round;stroke-linejoin:round;stroke-miterlimit:10;" d="M283.656,193.735
			l-60.771-1.165l-5.403,61.602c0,0,28.427-4.282,35.65,8.301c7.223,12.582-0.932,19.107-11.883,20.505
			c-10.951,1.398-25.901,0-25.901,0l-2.992,14.214c0,0,27.728,2.796,44.039-2.33c16.311-5.126,30.383-20.272,24.978-34.019
			c-5.405-13.748-42.641-22.04-42.641-22.04l4.847-29.921l35.417,2.071L283.656,193.735z"/>
		<g>
			<g>
				<path style="fill:#D8691D;" d="M230.387,232.147c-0.868,5.459-1.737,10.919-2.606,16.378c-2.091-2.898-4.183-5.796-6.274-8.695
					c-2.042,2.212-4.083,4.425-6.125,6.637c1.188-5.837,2.375-11.674,3.563-17.511C222.548,229.869,226.785,231.235,230.387,232.147
					z"/>
				<path style="fill:#3C6AA9;" d="M248.386,230.721c0.084-0.162,0.168-0.324,0.252-0.486c1.066,4.215,2.132,8.43,3.198,12.645
					c-2.108-1.585-4.215-3.171-6.323-4.756c-1.041,2.498-2.452,5.157-3.493,7.656c-1.096-4.618-2.192-9.237-3.288-13.855
					C241.644,231.518,245.474,231.128,248.386,230.721z"/>
				<path style="fill:#D8691D;" d="M265.716,220.936c0.118-0.202,0.237-0.404,0.355-0.606c2.75,4.373,5.501,8.747,8.251,13.12
					c-2.558-0.609-5.116-1.219-7.673-1.828c-0.439,2.331-1.257,4.849-1.696,7.18c-2.482-4.184-4.964-8.368-7.446-12.552
					C259.999,224.196,264.083,223.723,265.716,220.936z"/>
				<path style="fill:#3C6AA9;" d="M277.791,204.165c3.626,3.844,7.252,7.689,10.878,11.533c-2.735-0.382-5.47-0.763-8.205-1.145
					c0.08,2.644,0.161,5.289,0.241,7.933c-2.645-3.165-5.29-6.329-7.935-9.494C274.42,210.265,276.141,206.891,277.791,204.165z"/>
				<path style="fill:#D8691D;" d="M279.851,199.156c4.052,1.241,8.104,2.481,12.156,3.722c-1.366-1.802-2.733-3.604-4.099-5.406
					c2.222-0.532,4.443-1.065,6.665-1.597c-4.176-1.713-8.842-3.415-13.267-4.309C280.837,193.953,280.32,196.768,279.851,199.156z"
					/>
			</g>
			<path style="fill:none;stroke:#1F192C;stroke-linecap:round;stroke-linejoin:round;stroke-miterlimit:10;" d="M281.372,189.969
				c-1.349,14.787-10.298,28.677-23.206,36.017c-12.908,7.34-29.42,7.93-42.819,1.528"/>
		</g>
		<g>
			<g>
				<path style="fill:#EDDF54;" d="M271.722,165.367c-4.506,1.17-8.815,3.096-12.693,5.672c-2.232,1.483-4.389,3.263-5.551,5.678
					c-1.162,2.415-1.086,5.591,0.792,7.502c1.982,2.017,6.18,1.495,8.688,0.19c2.508-1.305,4.342-3.661,5.538-6.223
					c1.196-2.562,1.817-5.348,2.43-8.108C271.201,168.834,271.446,166.609,271.722,165.367z"/>
				<path style="fill:#D8691D;" d="M264.808,171.839c-2.929,0.311-5.721,1.766-7.654,3.988c-1.933,2.222-2.988,5.188-2.892,8.132
					C259.684,182.418,263.256,177.258,264.808,171.839z"/>
			</g>
			<path style="fill:none;stroke:#1F192C;stroke-linecap:round;stroke-linejoin:round;stroke-miterlimit:10;" d="M251.564,191.87
				c0.031-5.102,2.839-10.103,7.178-12.786"/>
		</g>
		<path style="fill:none;stroke:#1F192C;stroke-linecap:round;stroke-linejoin:round;stroke-miterlimit:10;" d="M223.736,180.497
			c-2.689-1.649-6.418-0.189-8.277,2.36c-1.858,2.549-2.302,5.837-2.587,8.979s-0.503,6.407-2.023,9.171
			c-0.835,1.519-2.202,2.91-3.925,3.098c-1.723,0.189-3.612-1.368-3.231-3.059c0.365-1.619,2.546-2.274,4.046-1.563
			c1.5,0.71,2.37,2.313,2.858,3.9c1.034,3.362,0.764,7.107-0.741,10.287c-0.848,1.79-2.058,3.384-2.979,5.138
			c-0.92,1.754-1.551,3.78-1.105,5.709c0.446,1.93,2.26,3.634,4.227,3.399s3.295-2.962,1.927-4.395
			c-0.964-1.01-2.7-0.911-3.844-0.11c-1.144,0.802-1.805,2.121-2.288,3.432c-1.876,5.094-1.666,10.922,0.572,15.868"/>
		<path style="fill:none;stroke:#1F192C;stroke-linecap:round;stroke-linejoin:round;stroke-miterlimit:10;" d="M290.261,223.478
			c-2.854,0.618-5.029,3.512-4.829,6.425s2.749,5.483,5.66,5.706c2.912,0.223,5.823-1.928,6.464-4.777
			c-3.523-0.351-7.169,1.594-8.838,4.717c-1.377,2.576-1.349,5.951,0.397,8.293c1.745,2.342,5.26,3.302,7.799,1.856
			c1.047-0.596,1.913-1.609,2.079-2.802c0.166-1.193-0.516-2.522-1.67-2.868c-1.017-0.304-2.142,0.194-2.855,0.98
			c-0.714,0.786-1.094,1.813-1.417,2.824c-0.698,2.188-1.193,4.615-0.312,6.736c0.88,2.121,3.655,3.56,5.576,2.301"/>
		<path style="fill:#E1A3BE;" d="M207.801,267.218c0,2.153-1.745,3.898-3.898,3.898c-2.153,0-3.898-1.745-3.898-3.898
			c0-2.153,1.745-3.898,3.898-3.898C206.056,263.321,207.801,265.066,207.801,267.218z"/>
		<path style="fill:#EDDF54;" d="M289.735,180.21c0,1.421-1.152,2.574-2.574,2.574c-1.421,0-2.573-1.152-2.573-2.574
			c0-1.421,1.152-2.574,2.573-2.574C288.583,177.637,289.735,178.789,289.735,180.21z"/>
		<path style="fill:#3C6AA9;" d="M294.618,292.065c0,2.059-1.669,3.728-3.728,3.728c-2.059,0-3.728-1.669-3.728-3.728
			c0-2.059,1.669-3.728,3.728-3.728C292.949,288.337,294.618,290.006,294.618,292.065z"/>
	</g>
	<g>
		<path style="fill:#D8691D;" d="M414.832,239.714c8.104-25.016,46.508-19.378,46.508-19.378l3.876-19.378
			c-48.269-10.57-67.295,13.741-74.342,33.472c-7.047,19.731-1.762,53.907,31.358,64.477c33.119,10.57,49.327-14.798,39.109-36.995
			C451.122,239.714,414.832,239.714,414.832,239.714z M422.889,278.883c-9.492-6.402-9.114-20.556-9.114-20.556
			s29.535,4.664,33.471,14.506C452.884,286.926,422.889,278.883,422.889,278.883z"/>
		<g>
			<path style="fill:none;stroke:#E1A3BE;stroke-linecap:round;stroke-linejoin:round;stroke-miterlimit:10;" d="M458.13,216.894
				c0.93-4.441,1.86-8.882,2.791-13.323c-14.961-2.951-30.796-1.789-44.104,5.657c-13.307,7.446-23.301,21.39-24.078,36.619
				c-0.492,9.633,0.748,19.622,4.977,28.291c4.229,8.669,11.19,16.099,19.883,20.279c8.693,4.18,19.109,4.937,28.096,1.433
				c3.571-1.393,6.963-3.492,9.269-6.553c2.431-3.226,3.502-7.339,3.52-11.378c0.051-10.919-7.336-20.868-16.704-26.478
				c-9.368-5.61-20.464-7.541-31.342-8.494c2.082-9.575,9.731-17.166,18.682-21.152C438.071,217.81,448.334,216.699,458.13,216.894z
				"/>
			<path style="fill:none;stroke:#E1A3BE;stroke-linecap:round;stroke-linejoin:round;stroke-miterlimit:10;" d="M409.37,254.786
				c-0.445,10.046,6.287,23.548,15.126,28.341c0,0,11.391,3.022,19.614,0.918c8.223-2.104,9.596-9.562,3.842-15.49
				C442.198,262.627,409.37,254.786,409.37,254.786z"/>
		</g>
		<g>
			<g>
				<path style="fill:#3C6AA9;" d="M399.07,261.345c-0.402,3.921-0.907,7.855-1.309,11.776c-1.368-1.974-2.936-3.773-4.304-5.747
					c-1.237,1.596-2.672,3.196-3.909,4.792c0.123-4.583,0.246-9.167,0.369-13.75C392.467,260.183,395.968,261.335,399.07,261.345z"
					/>
				<path style="fill:#EDDF54;" d="M413.834,260.863c0.253,4.038,0.241,8.091,0.494,12.129c-1.59-1.556-3.187-3.232-4.777-4.788
					c-1.126,1.887-2.223,3.606-3.349,5.494c-0.597-3.998-1.194-7.996-1.791-11.993C407.458,262.073,410.894,261.741,413.834,260.863
					z"/>
				<path style="fill:#3C6AA9;" d="M427.704,253.495c1.578,4.238,3.156,8.476,4.734,12.714c-1.753-1.031-3.734-2.083-5.487-3.115
					c-0.87,2.188-1.739,4.377-2.608,6.565c-1.625-3.713-3.249-7.425-4.874-11.138C422.406,257.514,425.549,255.732,427.704,253.495z
					"/>
				<path style="fill:#EDDF54;" d="M432.636,248.319c2.333,3.459,4.666,6.917,6.999,10.376c0.043-2.415,0.086-4.831,0.129-7.246
					c1.854,0.033,3.708,0.066,5.561,0.099c-2.525-3.342-5.18-6.466-8.595-8.892C435.617,244.566,433.75,246.409,432.636,248.319z"/>
			</g>
			<path style="fill:none;stroke:#1F192C;stroke-linecap:round;stroke-linejoin:round;stroke-miterlimit:10;" d="M387.422,257.027
				c8.203,4.869,18.455,6.146,27.601,3.439c9.146-2.707,17.051-9.36,21.282-17.909"/>
		</g>
		<g>
			<g>
				<path style="fill:#EDDF54;" d="M426.598,195.408c-2.918,1.227-6.462,0.222-8.761-1.955c-2.299-2.177-3.478-5.328-3.853-8.472
					c-0.375-3.144-0.02-6.323,0.335-9.469c5.795,2.158,11.077,6.757,13.01,12.631C428.211,190.825,427.739,192.827,426.598,195.408z
					"/>
				<path style="fill:#D8691D;" d="M424.253,192.633c-2.19-0.048-4.318-1.283-5.447-3.16c-1.13-1.877-1.224-4.335-0.241-6.293
					C422.4,184.616,424.854,188.583,424.253,192.633z"/>
			</g>
			<path style="fill:none;stroke:#1F192C;stroke-linecap:round;stroke-linejoin:round;stroke-miterlimit:10;" d="M428.922,202.707
				c-0.825-4.696-3.083-9.13-6.397-12.559"/>
		</g>
		<path style="fill:none;stroke:#1F192C;stroke-linecap:round;stroke-linejoin:round;stroke-miterlimit:10;" d="M445.064,229.523
			c1.31,4.363,5.677,7.613,10.233,7.615c1.183,0,2.477-0.258,3.224-1.176c0.747-0.918,0.501-2.618-0.644-2.915
			c-1.363-0.354-2.353,1.431-2.2,2.831c0.23,2.112,1.736,3.864,3.375,5.217c1.638,1.353,3.494,2.473,4.876,4.087
			c1.382,1.614,2.223,3.936,1.378,5.885c-0.845,1.949-3.858,2.798-5.178,1.133c-1.291-1.629,0.147-4.332,2.194-4.694
			c2.046-0.362,4.074,1.062,5.081,2.879c1.007,1.818,1.221,3.955,1.413,6.024"/>
		<path style="fill:none;stroke:#1F192C;stroke-linecap:round;stroke-linejoin:round;stroke-miterlimit:10;" d="M390.157,282.278
			c-2.492,1.294-3.936,4.34-3.362,7.088c0.574,2.749,3.116,4.962,5.918,5.151c1.002,0.068,2.075-0.128,2.82-0.801
			c0.745-0.673,1.026-1.908,0.424-2.712c-0.961-1.282-3.084-0.537-4.113,0.691c-2.342,2.794-1.863,7.495,0.995,9.759
			c2.857,2.264,7.543,1.655,9.727-1.265c0.465-0.622,0.833-1.368,0.778-2.143c-0.055-0.775-0.652-1.545-1.428-1.577
			c-1.298-0.053-1.829,1.711-1.569,2.984c0.476,2.323,2.233,4.341,4.468,5.131c2.235,0.79,4.87,0.326,6.701-1.182"/>
		<path style="fill:#E1A3BE;" d="M401.18,199.249c0,1.558-1.263,2.822-2.822,2.822c-1.559,0-2.822-1.263-2.822-2.822
			c0-1.558,1.263-2.822,2.822-2.822C399.917,196.428,401.18,197.691,401.18,199.249z"/>
		<path style="fill:#EDDF54;" d="M428.922,234.469c0,0.82-0.664,1.484-1.484,1.484c-0.82,0-1.484-0.665-1.484-1.484
			s0.664-1.484,1.484-1.484C428.257,232.985,428.922,233.65,428.922,234.469z"/>
		<path style="fill:#E1A3BE;" d="M384.103,269.788c0,2.65-2.148,4.798-4.798,4.798c-2.65,0-4.798-2.148-4.798-4.798
			c0-2.65,2.148-4.798,4.798-4.798C381.955,264.989,384.103,267.138,384.103,269.788z"/>
	</g>
	<g>
		<polygon style="fill:#EDDF54;" points="27.598,352.793 31.156,384.466 82.046,385.889 50.017,468.095 88.807,468.095 
			117.632,382.686 117.632,352.793 		"/>
		<g>
			<g>
				<path style="fill:#EDDF54;" d="M75.867,345.797c-3.162,1.964-7.547,0.621-10.081-2.105c-2.534-2.726-3.616-6.472-4.417-10.107
					c-0.801-3.635-1.435-7.398-3.319-10.608c4.011,0.837,7.724,1.007,11.271,3.058c3.547,2.051,6.634,5.095,8.126,8.91
					C78.939,338.762,79.347,343.635,75.867,345.797z"/>
				<path style="fill:#D8691D;" d="M73.655,342.131c-2.97-0.317-5.38-2.733-6.557-5.478c-1.177-2.745-1.349-5.8-1.505-8.782
					c2.873,1.022,5.268,2.79,6.775,5.442C73.875,335.965,74.247,339.14,73.655,342.131z"/>
			</g>
			<path style="fill:none;stroke:#1F192C;stroke-linecap:round;stroke-linejoin:round;stroke-miterlimit:10;" d="M76.481,354.781
				c0.543-3.076-0.067-6.267-1.215-9.172c-1.148-2.905-2.818-5.57-4.477-8.216"/>
		</g>
		<polygon style="fill:none;stroke:#E1A3BE;stroke-linecap:round;stroke-linejoin:round;stroke-miterlimit:10;" points="
			36.789,379.343 31.43,355.91 112.051,357.541 112.051,381.308 86.886,464.725 56.129,463.56 87.352,382.007 		"/>
		<path style="fill:none;stroke:#1F192C;stroke-linecap:round;stroke-linejoin:round;stroke-miterlimit:10;" d="M38.315,390.877
			c-3.162,3.288-4.202,8.453-2.559,12.709c0.856,2.217,2.561,4.284,4.883,4.79c2.322,0.507,5.103-1.166,5.114-3.543
			c0.014-3.262-5.059-4.415-7.365-2.107c-2.306,2.307-2.193,6.115-1.174,9.214c1.019,3.099,2.774,5.973,3.3,9.192
			c0.526,3.22-0.699,7.118-3.796,8.141c-3.098,1.023-6.742-3.249-4.442-5.564c1.336-1.345,3.731-1.062,5.162,0.183
			c1.431,1.245,2.075,3.164,2.411,5.031c0.336,1.866,0.429,3.79,1.042,5.584c0.612,1.791,1.806,3.457,3.521,4.259
			c1.714,0.802,3.971,0.557,5.225-0.86c1.254-1.417,1.06-3.977-0.571-4.937c-1.766-1.038-4.064,0.106-5.41,1.651
			c-2.882,3.308-3.253,8.553-0.868,12.235"/>
		<path style="fill:none;stroke:#1F192C;stroke-linecap:round;stroke-linejoin:round;stroke-miterlimit:10;" d="M122.295,369.152
			c4.416,3.383,5.285,10.527,1.81,14.87c-1.042,1.302-3.162,2.309-4.233,1.03c-0.803-0.96-0.169-2.575,0.966-3.101
			c1.135-0.527,2.493-0.218,3.609,0.348c2.478,1.258,4.262,3.792,4.611,6.549c0.348,2.757-0.749,5.656-2.836,7.49
			c-1.616,1.421-4.428,2.031-5.736,0.322c-0.822-1.073-0.639-2.702,0.206-3.757c0.845-1.055,2.212-1.588,3.56-1.693
			c3.16-0.248,6.357,1.848,7.389,4.845c1.032,2.997-0.196,6.617-2.839,8.367"/>
		<g>
			<g>
				<path style="fill:#3C6AA9;" d="M84.619,406.836c-0.425,5.47-0.912,10.783-1.337,16.253c-1.463-2.184-2.753-4.192-4.216-6.375
					c-1.805,2.315-3.666,4.568-5.471,6.884c0.542-5.713,1.083-11.425,1.625-17.138C78.288,407.219,81.471,407.125,84.619,406.836z"
					/>
				<path style="fill:#E1A3BE;" d="M99.488,403.763c1.08,4.826,2.103,9.57,3.184,14.396c-2.003-1.421-4.448-2.803-6.451-4.224
					c-1.047,2.665-2.325,5.248-3.371,7.913c-0.997-5.277-1.993-10.553-2.989-15.83C93.136,405.984,96.48,405.063,99.488,403.763z"/>
				<path style="fill:#3C6AA9;" d="M112.574,396.974c1.418,3.968,2.602,7.979,4.02,11.947c-1.819-0.829-3.973-1.404-5.792-2.233
					c-0.509,2.454-1.212,4.691-1.722,7.144c-1.38-4.032-2.761-8.063-4.141-12.095C107.517,400.17,109.996,398.542,112.574,396.974z"
					/>
			</g>
			<path style="fill:none;stroke:#1F192C;stroke-linecap:round;stroke-linejoin:round;stroke-miterlimit:10;" d="M74.163,405.725
				c13.702,2.354,28.313-1.162,39.443-9.492"/>
		</g>
		<path style="fill:#3C6AA9;" d="M64.37,398.244c0,3.048-2.471,5.519-5.519,5.519c-3.048,0-5.519-2.471-5.519-5.519
			c0-3.048,2.471-5.519,5.519-5.519C61.899,392.725,64.37,395.196,64.37,398.244z"/>
		<path style="fill:#EDDF54;" d="M121.619,346.719c0,1.101-0.892,1.993-1.993,1.993s-1.993-0.892-1.993-1.993
			c0-1.101,0.892-1.993,1.993-1.993S121.619,345.618,121.619,346.719z"/>
		<path style="fill:#E1A3BE;" d="M119.507,438.861c0,3.346-2.712,6.058-6.058,6.058c-3.346,0-6.058-2.712-6.058-6.058
			c0-3.346,2.712-6.058,6.058-6.058C116.795,432.803,119.507,435.515,119.507,438.861z"/>
	</g>
	<g>
		<path style="fill:#3C6AA9;" d="M292.991,426.231c-1.657-10.159-6.876-19.545-13.874-27.094c6.84-11.511,6.864-27.489-0.717-38.526
			c-7.581-11.037-17.741-12.335-31.823-11.798c-13.511,0.516-27.866,4.852-33.395,17.192c-5.528,12.339-1.415,28.25,9.4,36.365
			c-11.821,4.434-20.18,19.317-19.723,31.934c0.457,12.617,8.283,24.385,19.065,30.953c10.782,6.568,24.14,8.224,36.562,5.968
			c10.73-1.949,21.271-6.991,27.841-15.695C292.527,447.312,294.648,436.39,292.991,426.231z M259.529,369.749
			c2.86,4.266,3.213,9.871,1.846,14.822c-1.023,3.704-3.143,7.34-6.591,9.038c-3.629,1.788-8.23,1.019-11.415-1.476
			c-3.186-2.494-5.002-6.49-5.33-10.522C237.074,369.741,250.458,356.217,259.529,369.749z M263.796,442.318
			c-1.406,4.025-4.682,7.612-8.878,8.37c-4.059,0.733-8.298-1.348-10.84-4.596c-2.542-3.248-3.564-7.479-3.622-11.604
			c-0.132-9.412,8.158-30.869,19.469-17.056c2.789,3.406,3.896,7.876,4.505,12.236C265.02,433.889,265.202,438.294,263.796,442.318z
			"/>
		<g>
			<path style="fill:none;stroke:#D8691D;stroke-linecap:round;stroke-linejoin:round;stroke-miterlimit:10;" d="M242.18,352.793
				c-5.797,0.737-29.46,6.134-26.788,25.718c2.672,19.584,13.04,24.199,13.04,24.199s-18.27,9.263-20.738,26.039
				c-2.468,16.776,16.544,38.287,34.951,39.344c18.408,1.058,37.282-7.098,43.34-19.913c6.058-12.815,1.372-30.078-11.619-46.844
				c0,0,11.153-29.117,1.134-38.904C265.481,352.648,255.695,351.075,242.18,352.793z"/>
			<path style="fill:none;stroke:#D8691D;stroke-linecap:round;stroke-linejoin:round;stroke-miterlimit:10;" d="M234.583,378.756
				c-0.616,6.157,1.611,12.75,6.482,16.566c4.871,3.816,12.42,4.213,17.155,0.23c4.14-3.482,5.463-9.318,5.485-14.728
				c0.024-5.96-1.425-12.276-5.683-16.447c-3.828-3.749-10.823-5.207-15.407-1.886C238.027,365.815,235.125,373.339,234.583,378.756
				z"/>
			<path style="fill:none;stroke:#D8691D;stroke-linecap:round;stroke-linejoin:round;stroke-miterlimit:10;" d="M238.089,441.345
				c1.154,4.35,3.402,8.658,7.247,10.998c4.406,2.681,10.343,2.2,14.647-0.642c4.304-2.842,7.007-7.749,7.8-12.845
				c0.793-5.096-0.188-10.354-2.106-15.141c-1.791-4.471-4.588-8.796-8.853-11.033c-5.785-3.035-12.936-0.746-15.923,4.845
				C237.052,424.728,235.994,433.446,238.089,441.345z"/>
		</g>
		<g>
			<g>
				<path style="fill:#D8691D;" d="M230.607,412.081c-0.879,5.556-1.757,11.113-2.636,16.669c-2.116-2.95-4.231-5.9-6.347-8.849
					c-2.065,2.252-4.131,4.503-6.196,6.755c1.202-5.941,2.403-11.882,3.605-17.823C222.676,409.762,226.963,411.152,230.607,412.081
					z"/>
				<path style="fill:#E1A3BE;" d="M248.816,410.63c0.085-0.165,0.17-0.33,0.255-0.495c1.078,4.29,2.156,8.58,3.235,12.87
					c-2.132-1.614-4.264-3.227-6.397-4.841c-1.053,2.543-2.481,5.249-3.534,7.792c-1.109-4.701-2.217-9.401-3.326-14.102
					C241.995,411.44,245.869,411.044,248.816,410.63z"/>
				<path style="fill:#D8691D;" d="M266.347,400.671c0.12-0.206,0.239-0.411,0.359-0.617c2.782,4.451,5.564,8.902,8.347,13.353
					c-2.587-0.62-5.175-1.241-7.763-1.861c-0.444,2.372-1.272,4.935-1.715,7.307c-2.511-4.258-5.022-8.517-7.533-12.775
					C260.564,403.988,264.695,403.507,266.347,400.671z"/>
				<path style="fill:#E1A3BE;" d="M278.562,383.601c3.668,3.913,7.337,7.825,11.005,11.738c-2.767-0.388-5.534-0.777-8.301-1.165
					c0.081,2.691,0.163,5.383,0.244,8.074c-2.676-3.221-5.352-6.442-8.027-9.663C275.152,389.81,276.894,386.376,278.562,383.601z"
					/>
				<path style="fill:#D8691D;" d="M280.646,378.502c4.099,1.263,8.198,2.526,12.297,3.788c-1.382-1.834-2.764-3.668-4.146-5.503
					c2.247-0.542,4.495-1.084,6.742-1.625c-4.225-1.743-8.945-3.476-13.421-4.386C281.644,373.207,281.12,376.072,280.646,378.502z"
					/>
			</g>
			<path style="fill:none;stroke:#1F192C;stroke-linecap:round;stroke-linejoin:round;stroke-miterlimit:10;" d="M282.185,369.152
				c-1.365,15.051-10.418,29.188-23.476,36.658c-13.058,7.471-29.763,8.071-43.317,1.555"/>
		</g>
		<path style="fill:none;stroke:#1F192C;stroke-linecap:round;stroke-linejoin:round;stroke-miterlimit:10;" d="M203.894,365.079
			c-4.861,3.202-6.769,10.195-4.206,15.421c0.521,1.063,1.238,2.085,2.28,2.647c1.041,0.563,2.459,0.549,3.303-0.281
			c0.844-0.83,0.739-2.504-0.332-3.009c-1.035-0.488-2.231,0.249-3.015,1.082c-1.996,2.118-3.015,5.123-2.717,8.019
			c0.297,2.896,1.904,5.631,4.289,7.3c1.426,0.998,3.311,1.62,4.91,0.93c1.598-0.69,2.363-3.115,1.039-4.245
			c-0.807-0.689-2.077-0.639-2.969-0.065c-0.892,0.574-1.441,1.571-1.705,2.599c-0.547,2.133,0.064,4.528,1.568,6.137
			c1.504,1.609,3.851,2.382,6.017,1.981"/>
		<path style="fill:none;stroke:#1F192C;stroke-linecap:round;stroke-linejoin:round;stroke-miterlimit:10;" d="M292.255,402.653
			c5.815,1.304,9.601,8.298,7.513,13.88c-0.405,1.084-1.077,2.174-2.162,2.578c-1.085,0.403-2.575-0.277-2.597-1.434
			c-0.028-1.474,2.104-2.006,3.42-1.343c2.569,1.294,3.219,4.738,2.713,7.569s-1.833,5.503-2.014,8.374
			c-0.181,2.871,1.369,6.226,4.223,6.587c2.015,0.255,4.084-1.327,4.367-3.338c0.282-2.012-1.271-4.102-3.278-4.412
			c-2.437-0.376-4.724,1.706-5.397,4.078c-0.673,2.372-0.122,4.908,0.571,7.274c0.693,2.366,1.535,4.755,1.438,7.219
			s-1.405,5.077-3.745,5.855c-2.34,0.778-5.377-1.272-4.876-3.686c0.368-1.775,2.483-2.842,4.236-2.38
			c1.753,0.463,3.01,2.147,3.32,3.932c0.311,1.786-0.199,3.633-1.043,5.237"/>
		<g>
			<g>
				<path style="fill:#EDDF54;" d="M250.693,342.283c-2.121-0.968-3.296-3.393-3.357-5.724c-0.062-2.331,0.804-4.585,1.826-6.681
					c2.721-5.584,6.66-10.57,11.463-14.509c1.809,3.71,3.816,7.587,3.961,11.712c0.145,4.125-1,8.391-3.693,11.519
					C258.2,341.729,254.449,343.996,250.693,342.283z"/>
				<path style="fill:#D8691D;" d="M258.621,324.066c-3.698,3.505-6.265,8.187-7.23,13.19c2.976-0.317,6.089-1.349,7.645-3.906
					C260.591,330.793,259.708,326.854,258.621,324.066z"/>
			</g>
			<path style="fill:none;stroke:#1F192C;stroke-linecap:round;stroke-linejoin:round;stroke-miterlimit:10;" d="M246.541,351.007
				c0.888-6.082,3.737-11.862,8.02-16.271"/>
		</g>
		<path style="fill:#3C6AA9;" d="M201.804,410.137c0,2.041-1.654,3.695-3.695,3.695c-2.041,0-3.695-1.654-3.695-3.695
			c0-2.041,1.654-3.695,3.695-3.695C200.15,406.442,201.804,408.096,201.804,410.137z"/>
		<path style="fill:#EDDF54;" d="M291.568,349.391c0,3.601-2.919,6.519-6.519,6.519c-3.6,0-6.519-2.919-6.519-6.519
			c0-3.6,2.919-6.519,6.519-6.519C288.649,342.872,291.568,345.79,291.568,349.391z"/>
		<path style="fill:#E1A3BE;" d="M280.229,472.211c0,1.619-1.312,2.931-2.931,2.931c-1.619,0-2.931-1.312-2.931-2.931
			c0-1.619,1.312-2.931,2.931-2.931C278.917,469.28,280.229,470.592,280.229,472.211z"/>
	</g>
	<g>
		<path style="fill:#E1A3BE;" d="M432.561,410.072c-0.066,29.707-43.319,36.923-43.319,36.923l2.532,22.182
			c55.569-5.322,67.626-38.047,68.383-61.704c0.757-23.657-16.745-58.587-56.02-58.503s-47.935,32.971-29.27,53.311
			C393.53,422.62,432.561,410.072,432.561,410.072z M407.22,367.22c17.52,1.79,20.042,22.467,20.042,22.467
			s-33.378,5.196-41.015-4.028C375.311,372.451,400.274,366.51,407.22,367.22z"/>
		<g>
			<path style="fill:none;stroke:#EDDF54;stroke-linecap:round;stroke-linejoin:round;stroke-miterlimit:10;" d="M391.971,451.04
				c0.392,5.291,0.783,10.582,1.175,15.873c35.298-1.12,70.839-32.117,62.441-69.307c-4.446-22.006-20.428-42.832-43.36-46.683
				c-18.754-3.989-48.728,11.779-41.998,34.286c8.259,26.64,43.082,26.987,66.55,21.309
				C438.036,431.088,413.17,445.959,391.971,451.04z"/>
			<path style="fill:none;stroke:#EDDF54;stroke-linecap:round;stroke-linejoin:round;stroke-miterlimit:10;" d="M434.192,393.997
				c-3.008-12.348-15.053-26.654-26.37-29.718c0,0-13.487-0.113-21.732,5.012c-8.246,5.126-7.15,14.619,1.194,20.026
				C395.627,394.724,434.192,393.997,434.192,393.997z"/>
		</g>
		<g>
			<g>
				<path style="fill:#D8691D;" d="M413.433,403.69c-3.117,3.213-6.335,6.365-9.452,9.578c0.169-2.723,0.037-5.429,0.207-8.152
					c-2.226,0.553-4.631,0.969-6.857,1.522c3.334-4,6.669-8,10.003-11.999C408.363,398.008,410.674,401.498,413.433,403.69z"/>
				<path style="fill:#EDDF54;" d="M426.935,413.647c-2.615,3.778-5.478,7.383-8.093,11.161c-0.323-2.506-0.567-5.124-0.89-7.63
					c-2.332,0.891-4.519,1.651-6.851,2.542c2.28-3.984,4.561-7.969,6.841-11.953C420.399,410.24,423.696,412.361,426.935,413.647z"
					/>
				<path style="fill:#D8691D;" d="M444.484,416.837c-1.575,4.889-3.15,9.777-4.725,14.666c-0.837-2.153-1.863-4.485-2.701-6.638
					c-2.315,1.339-4.63,2.679-6.945,4.018c1.164-4.453,2.327-8.906,3.491-13.359C436.934,416.692,440.989,417.315,444.484,416.837z"
					/>
				<path style="fill:#EDDF54;" d="M452.523,415.692c-0.353,4.725-0.707,9.45-1.06,14.175c1.738-2.123,3.475-4.247,5.213-6.37
					c1.63,1.334,3.259,2.667,4.889,4.001c0.1-4.756-0.069-9.409-1.407-13.974C457.821,414.443,454.86,414.773,452.523,415.692z"/>
			</g>
			<path style="fill:none;stroke:#1F192C;stroke-linecap:round;stroke-linejoin:round;stroke-miterlimit:10;" d="M406.085,391.645
				c3.887,10.112,12.129,18.464,22.189,22.485c10.059,4.021,21.787,3.652,31.574-0.994"/>
		</g>
		<g>
			<g>
				<path style="fill:#EDDF54;" d="M397.5,343.702c-2.918,1.227-6.462,0.222-8.761-1.955c-2.299-2.177-3.478-5.328-3.853-8.472
					c-0.375-3.143-0.02-6.323,0.335-9.469c5.795,2.158,11.077,6.757,13.01,12.632C399.113,339.118,398.641,341.12,397.5,343.702z"/>
				<path style="fill:#D8691D;" d="M395.156,340.927c-2.19-0.048-4.318-1.283-5.447-3.16c-1.13-1.877-1.224-4.335-0.241-6.293
					C393.302,332.91,395.756,336.877,395.156,340.927z"/>
			</g>
			<path style="fill:none;stroke:#1F192C;stroke-linecap:round;stroke-linejoin:round;stroke-miterlimit:10;" d="M399.824,351.001
				c-0.825-4.696-3.083-9.13-6.397-12.559"/>
		</g>
		<path style="fill:none;stroke:#1F192C;stroke-linecap:round;stroke-linejoin:round;stroke-miterlimit:10;" d="M362.445,410.153
			c-0.4,4.43,1.325,9.004,4.551,12.066c3.225,3.063,7.883,4.549,12.286,3.92c1.739-0.248,3.514-0.861,4.678-2.176
			c1.164-1.315,1.506-3.461,0.406-4.831c-1.157-1.439-3.501-1.478-5.013-0.418c-1.513,1.059-2.282,2.924-2.514,4.756
			c-0.557,4.404,1.816,9.035,5.717,11.155c3.901,2.12,9.078,1.592,12.47-1.271c1.188-1.003,2.205-2.37,2.257-3.924
			c0.053-1.554-1.202-3.191-2.753-3.091c-1.527,0.098-2.562,1.817-2.383,3.337c0.178,1.52,1.242,2.792,2.426,3.762
			c4.119,3.375,10.308,3.97,14.995,1.441"/>
		<path style="fill:none;stroke:#1F192C;stroke-linecap:round;stroke-linejoin:round;stroke-miterlimit:10;" d="M450.397,349.322
			c7.615,1.939,13.692,8.874,14.614,16.677c0.313,2.645,0.005,5.539-1.711,7.576c-1.716,2.037-5.152,2.726-7.071,0.878
			c-2.903-2.796,0.865-8.288,4.861-7.768c3.997,0.521,6.565,4.726,7.059,8.727c0.494,4-0.472,8.03-0.51,12.06
			c-0.039,4.03,1.18,8.517,4.664,10.543c3.484,2.026,9.162-0.536,8.59-4.526c-3.541-0.752-6.96,2.379-7.886,5.878
			c-0.926,3.5-0.046,7.192,0.8,10.712c0.846,3.52,1.653,7.246,0.594,10.708c-1.059,3.461-4.695,6.41-8.168,5.389"/>
		<path style="fill:#3C6AA9;" d="M370.588,346.901c0,2.264-1.835,4.1-4.1,4.1c-2.264,0-4.1-1.836-4.1-4.1c0-2.264,1.836-4.1,4.1-4.1
			C368.752,342.802,370.588,344.637,370.588,346.901z"/>
		<path style="fill:#D8691D;" d="M444.733,350.618c0,2.053-1.664,3.717-3.717,3.717c-2.053,0-3.717-1.664-3.717-3.717
			c0-2.053,1.664-3.717,3.717-3.717C443.069,346.901,444.733,348.565,444.733,350.618z"/>
		<circle style="fill:#EDDF54;" cx="380.826" cy="447.368" r="5.151"/>
	</g>
</g>
</svg>
